<svg width="8" height="5" viewBox="0 0 8 5" fill="none" xmlns="http://www.w3.org/2000/svg">
<path d="M0 4.55721V0.442894C0 0.438163 0.00766762 0.392908 0.0230028 0.307128L2.63866 2.37817L0.0310038 4.701C0.0144892 4.65471 0.00407907 4.60674 0 4.55814V4.55721ZM0.347043 0.0214034C0.388726 0.00623245 0.433285 -0.00100844 0.478059 0.000112907H7.52226C7.56954 0.000203661 7.61649 0.00739386 7.66128 0.0214034L5.03796 2.09954L4.69091 2.35657L4.00416 2.87773L3.31741 2.35657L2.97037 2.09954L0.347043 0.0214034ZM0.355044 4.9787L2.98604 2.64353L4.0045 3.40752L5.02296 2.64353L7.65395 4.9787C7.61202 4.99306 7.56763 5.00027 7.52293 4.99999H0.478393C0.436225 4.99984 0.394435 4.99263 0.355044 4.9787ZM5.37 2.3791L7.97699 0.308054C7.99254 0.351859 8.00031 0.397711 7.99999 0.44382V4.55721C7.99926 4.60587 7.99153 4.65423 7.97699 4.701L5.37 2.3791Z" fill="white"/>
</svg>
