<svg width="24" height="24" viewBox="0 0 24 24" fill="none" xmlns="http://www.w3.org/2000/svg">
<path d="M21.6 0H2.4C1.76556 0.00317223 1.15819 0.257428 0.710696 0.707172C0.263201 1.15692 0.0119922 1.76555 0.0120001 2.4L0 24L4.8 19.2H21.6C22.236 19.1982 22.8453 18.9447 23.295 18.495C23.7447 18.0453 23.9982 17.436 24 16.8V2.4C23.9982 1.76405 23.7447 1.15467 23.295 0.704984C22.8453 0.255296 22.236 0.00184679 21.6 0ZM19.2 14.4H4.8V12H19.2V14.4ZM19.2 10.8H4.8V8.4H19.2V10.8ZM19.2 7.2H4.8V4.8H19.2V7.2Z" fill="black"/>
</svg>
