<svg width="25" height="25" viewBox="0 0 25 25" fill="none" xmlns="http://www.w3.org/2000/svg">
<path d="M12.4048 13.905C13.7398 13.905 15.0449 13.5092 16.1549 12.7675C17.2649 12.0258 18.1301 10.9715 18.641 9.73814C19.1519 8.50474 19.2855 7.14754 19.0251 5.83817C18.7646 4.5288 18.1218 3.32607 17.1778 2.38206C16.2338 1.43806 15.031 0.795182 13.7216 0.534732C12.4123 0.274281 11.0551 0.407954 9.82167 0.918845C8.58827 1.42974 7.53406 2.2949 6.79237 3.40493C6.05067 4.51497 5.65479 5.82001 5.65479 7.15503C5.65532 8.94508 6.36664 10.6617 7.6324 11.9274C8.89816 13.1932 10.6147 13.9045 12.4048 13.905ZM18.4048 15.405H15.8218C14.7504 15.8991 13.5846 16.1549 12.4048 16.1549C11.225 16.1549 10.0592 15.8991 8.98779 15.405H6.40479C4.81349 15.405 3.28736 16.0372 2.16214 17.1624C1.03693 18.2876 0.404785 19.8137 0.404785 21.405L0.404785 22.155C0.40505 22.7517 0.642188 23.3238 1.06409 23.7457C1.48599 24.1676 2.05813 24.4048 2.65479 24.405H22.1548C22.7514 24.4048 23.3236 24.1676 23.7455 23.7457C24.1674 23.3238 24.4045 22.7517 24.4048 22.155V21.405C24.4048 19.8137 23.7726 18.2876 22.6474 17.1624C21.5222 16.0372 19.9961 15.405 18.4048 15.405Z" fill="black"/>
</svg>
