<svg width="24" height="17" viewBox="0 0 24 17" fill="none" xmlns="http://www.w3.org/2000/svg">
<path d="M0 14.8719V1.5379C0 1.52257 0.023 1.3759 0.069 1.0979L7.915 7.80991L0.093 15.3379C0.0434621 15.1879 0.0122357 15.0324 0 14.8749V14.8719ZM1.041 0.171905C1.16603 0.122738 1.29969 0.0992708 1.434 0.102905H22.564C22.7058 0.103199 22.8466 0.126502 22.981 0.171905L15.112 6.90691L14.071 7.7399L12.011 9.4289L9.951 7.7399L8.91 6.90691L1.041 0.171905ZM1.065 16.2379L8.957 8.6699L12.012 11.1459L15.067 8.6699L22.959 16.2379C22.8332 16.2844 22.7001 16.3078 22.566 16.3069H1.435C1.30851 16.3064 1.18316 16.283 1.065 16.2379ZM16.108 7.8129L23.928 1.10091C23.9747 1.24287 23.998 1.39147 23.997 1.5409V14.8719C23.9948 15.0296 23.9716 15.1863 23.928 15.3379L16.108 7.8129Z" fill="black"/>
</svg>
