<svg width="25" height="24" viewBox="0 0 25 24" fill="none" xmlns="http://www.w3.org/2000/svg">
<path d="M23.315 16.9601L18.065 14.7101C17.8407 14.6144 17.5914 14.5941 17.3546 14.6523C17.1177 14.7106 16.9063 14.8442 16.752 15.0331L14.427 17.8741C10.7784 16.1535 7.84219 13.2169 6.122 9.5681L8.963 7.2431C9.15228 7.08913 9.28622 6.87766 9.3445 6.64073C9.40279 6.40379 9.38225 6.15431 9.286 5.9301L7.036 0.680104C6.93041 0.438599 6.74393 0.241464 6.50865 0.12264C6.27338 0.00381625 6.00403 -0.0292608 5.747 0.0291039L0.872 1.1541C0.624155 1.21131 0.403011 1.35081 0.244645 1.54986C0.0862795 1.7489 4.13481e-05 1.99574 9.19794e-08 2.2501C-0.000262595 5.10643 0.562139 7.93483 1.65509 10.5738C2.74803 13.2127 4.35011 15.6105 6.36984 17.6303C8.38957 19.65 10.7874 21.2521 13.4263 22.345C16.0653 23.438 18.8937 24.0004 21.75 24.0001C22.005 24.001 22.2528 23.9151 22.4527 23.7567C22.6525 23.5983 22.7926 23.3766 22.85 23.1281L23.975 18.2531C24.033 17.9947 23.9992 17.7241 23.8793 17.4879C23.7594 17.2518 23.5609 17.0648 23.318 16.9591L23.315 16.9601Z" fill="black"/>
</svg>
