<svg width="7" height="7" viewBox="0 0 7 7" fill="none" xmlns="http://www.w3.org/2000/svg">
<path d="M3.50078 1.70529C2.50759 1.70529 1.70647 2.50658 1.70647 3.5C1.70647 4.49342 2.50759 5.29471 3.50078 5.29471C4.49398 5.29471 5.29509 4.49342 5.29509 3.5C5.29509 2.50658 4.49398 1.70529 3.50078 1.70529ZM3.50078 4.6668C2.85895 4.6668 2.33424 4.14353 2.33424 3.5C2.33424 2.85647 2.85739 2.3332 3.50078 2.3332C4.14417 2.3332 4.66732 2.85647 4.66732 3.5C4.66732 4.14353 4.14261 4.6668 3.50078 4.6668ZM5.78701 1.63188C5.78701 1.86461 5.59961 2.05049 5.36849 2.05049C5.13581 2.05049 4.94997 1.86305 4.94997 1.63188C4.94997 1.4007 5.13737 1.21327 5.36849 1.21327C5.59961 1.21327 5.78701 1.4007 5.78701 1.63188ZM6.9754 2.05673C6.94886 1.49598 6.8208 0.999275 6.41009 0.590037C6.00095 0.180799 5.50435 0.0527167 4.94373 0.0246011C4.36592 -0.00820038 2.63408 -0.00820038 2.05627 0.0246011C1.49721 0.0511547 1.00061 0.179237 0.589905 0.588475C0.179197 0.997713 0.052705 1.49442 0.0245956 2.05517C-0.00819855 2.6331 -0.00819855 4.36533 0.0245956 4.94327C0.0511433 5.50402 0.179197 6.00073 0.589905 6.40996C1.00061 6.8192 1.49565 6.94728 2.05627 6.9754C2.63408 7.0082 4.36592 7.0082 4.94373 6.9754C5.50435 6.94885 6.00095 6.82076 6.41009 6.40996C6.81924 6.00073 6.9473 5.50402 6.9754 4.94327C7.0082 4.36533 7.0082 2.63466 6.9754 2.05673ZM6.22895 5.56337C6.10714 5.86952 5.87133 6.10538 5.56369 6.22877C5.10301 6.41153 4.00987 6.36935 3.50078 6.36935C2.99169 6.36935 1.89699 6.40996 1.43787 6.22877C1.13179 6.10694 0.895984 5.87108 0.772616 5.56337C0.589905 5.10259 0.632069 4.0092 0.632069 3.5C0.632069 2.9908 0.591467 1.89585 0.772616 1.43663C0.894423 1.13048 1.13023 0.894622 1.43787 0.771226C1.89855 0.588475 2.99169 0.630648 3.50078 0.630648C4.00987 0.630648 5.10457 0.590037 5.56369 0.771226C5.86977 0.89306 6.10558 1.12892 6.22895 1.43663C6.41166 1.89741 6.36949 2.9908 6.36949 3.5C6.36949 4.0092 6.41166 5.10415 6.22895 5.56337Z" fill="#ECE4E4"/>
</svg>
