<svg width="7" height="7" viewBox="0 0 7 7" fill="none" xmlns="http://www.w3.org/2000/svg">
<path d="M1.56687 7H0.115625V2.32646H1.56687V7ZM0.840469 1.68894C0.376406 1.68894 0 1.30456 0 0.840487C3.32156e-09 0.617576 0.0885491 0.403795 0.246168 0.246173C0.403786 0.0885511 0.617563 0 0.840469 0C1.06337 0 1.27715 0.0885511 1.43477 0.246173C1.59239 0.403795 1.68094 0.617576 1.68094 0.840487C1.68094 1.30456 1.30438 1.68894 0.840469 1.68894ZM6.99844 7H5.55031V4.72495C5.55031 4.18275 5.53937 3.48742 4.79578 3.48742C4.04125 3.48742 3.92563 4.0765 3.92563 4.68589V7H2.47594V2.32646H3.86781V2.96397H3.88812C4.08187 2.59678 4.55516 2.20927 5.26125 2.20927C6.73 2.20927 7 3.17648 7 4.43275V7H6.99844Z" fill="#ECE4E4"/>
</svg>
