<svg width="8" height="7" viewBox="0 0 8 7" fill="none" xmlns="http://www.w3.org/2000/svg">
<path d="M7.17768 1.74452C7.18276 1.82108 7.18276 1.89766 7.18276 1.97422C7.18276 4.30936 5.53302 7 2.51778 7C1.58883 7 0.725893 6.71014 0 6.20704C0.131985 6.22344 0.258876 6.22891 0.395939 6.22891C1.16243 6.22891 1.86802 5.95001 2.43148 5.47423C1.71066 5.45781 1.1066 4.94922 0.898472 4.24922C1 4.26561 1.10152 4.27656 1.20813 4.27656C1.35533 4.27656 1.50255 4.25467 1.6396 4.21641C0.888332 4.05233 0.324861 3.3414 0.324861 2.48281V2.46094C0.543127 2.59219 0.796956 2.67422 1.06597 2.68515C0.624346 2.36795 0.335017 1.82655 0.335017 1.21405C0.335017 0.885931 0.41622 0.58515 0.558362 0.322648C1.36547 1.39452 2.57868 2.09451 3.93908 2.17109C3.9137 2.03984 3.89847 1.90313 3.89847 1.76641C3.89847 0.79296 4.62944 0 5.53807 0C6.01015 0 6.43654 0.213281 6.73604 0.557812C7.10659 0.481253 7.46192 0.33359 7.77666 0.131251C7.65481 0.541416 7.39594 0.885948 7.05584 1.10468C7.38579 1.06642 7.70559 0.967961 8 0.831256C7.77669 1.18124 7.49748 1.49295 7.17768 1.74452Z" fill="#ECE4E4"/>
</svg>
